<mxfile host="app.diagrams.net" modified="2023-05-19T20:55:22.104Z" agent="Mozilla/5.0 (Windows NT 10.0; Win64; x64) AppleWebKit/537.36 (KHTML, like Gecko) Chrome/113.0.0.0 Safari/537.36 Edg/113.0.1774.42" version="21.2.9" etag="5R3HoSnbT658bRB6JpfQ" type="github">
  <diagram name="Page-1" id="FnQT6I-NqVwkA80FOt9y">
    <mxGraphModel>
      <root>
        <mxCell id="0" />
        <mxCell id="1" parent="0" />
      </root>
    </mxGraphModel>
  </diagram>
</mxfile>
